<svg xmlns="http://www.w3.org/2000/svg" xmlns:xlink="http://www.w3.org/1999/xlink" width="1920" zoomAndPan="magnify" viewBox="0 0 1440 809.999993" height="1080" preserveAspectRatio="xMidYMid meet" version="1.0"><defs><clipPath id="f1b22b523a"><path d="M 22.339844 550.8125 L 440.859375 550.8125 L 440.859375 758.855469 L 22.339844 758.855469 Z M 22.339844 550.8125 " clip-rule="nonzero"/></clipPath><clipPath id="24d4496684"><path d="M 161.917969 562.898438 C 183.304688 555.601562 207.765625 550.8125 231.707031 550.8125 C 255.648438 550.8125 278.683594 554.917969 299.914062 562.214844 C 300.367188 562.441406 300.820312 562.441406 301.269531 562.671875 C 380.996094 591.855469 439.71875 668.925781 440.847656 752.171875 L 440.847656 758.855469 L 22.339844 758.855469 L 22.339844 752.175781 C 23.46875 668.472656 81.289062 591.402344 161.917969 562.898438 Z M 161.917969 562.898438 " clip-rule="nonzero"/></clipPath><clipPath id="b755a18395"><path d="M 0.339844 0.8125 L 418.859375 0.8125 L 418.859375 208.855469 L 0.339844 208.855469 Z M 0.339844 0.8125 " clip-rule="nonzero"/></clipPath><clipPath id="fc2162c39d"><path d="M 139.917969 12.898438 C 161.304688 5.601562 185.765625 0.8125 209.707031 0.8125 C 233.648438 0.8125 256.683594 4.917969 277.914062 12.214844 C 278.367188 12.441406 278.820312 12.441406 279.269531 12.671875 C 358.996094 41.855469 417.71875 118.925781 418.847656 202.171875 L 418.847656 208.855469 L 0.339844 208.855469 L 0.339844 202.175781 C 1.46875 118.472656 59.289062 41.402344 139.917969 12.898438 Z M 139.917969 12.898438 " clip-rule="nonzero"/></clipPath><clipPath id="2925f953f4"><rect x="0" width="419" y="0" height="209"/></clipPath><clipPath id="2a41d2c63f"><path d="M 476.074219 340.347656 L 684.113281 340.347656 L 684.113281 758.867188 L 476.074219 758.867188 Z M 476.074219 340.347656 " clip-rule="nonzero"/></clipPath><clipPath id="142f46d52c"><path d="M 672.027344 479.925781 C 679.324219 501.3125 684.113281 525.773438 684.113281 549.714844 C 684.113281 573.652344 680.007812 596.691406 672.714844 617.921875 C 672.484375 618.375 672.484375 618.824219 672.257812 619.277344 C 643.070312 699.003906 566 757.726562 482.753906 758.855469 L 476.074219 758.855469 L 476.074219 340.347656 L 482.75 340.347656 C 566.457031 341.476562 643.527344 399.292969 672.027344 479.925781 Z M 672.027344 479.925781 " clip-rule="nonzero"/></clipPath><clipPath id="76ec4f9052"><path d="M 0.0742188 0.347656 L 208.113281 0.347656 L 208.113281 418.867188 L 0.0742188 418.867188 Z M 0.0742188 0.347656 " clip-rule="nonzero"/></clipPath><clipPath id="8348c8a87d"><path d="M 196.027344 139.925781 C 203.324219 161.3125 208.113281 185.773438 208.113281 209.714844 C 208.113281 233.652344 204.007812 256.691406 196.714844 277.921875 C 196.484375 278.375 196.484375 278.824219 196.257812 279.277344 C 167.070312 359.003906 90 417.726562 6.753906 418.855469 L 0.0742188 418.855469 L 0.0742188 0.347656 L 6.75 0.347656 C 90.457031 1.476562 167.527344 59.292969 196.027344 139.925781 Z M 196.027344 139.925781 " clip-rule="nonzero"/></clipPath><clipPath id="325277e6c7"><rect x="0" width="209" y="0" height="419"/></clipPath><clipPath id="fee7ac74f5"><path d="M 23.554688 51.125 L 231.59375 51.125 L 231.59375 469.644531 L 23.554688 469.644531 Z M 23.554688 51.125 " clip-rule="nonzero"/></clipPath><clipPath id="24315b5713"><path d="M 35.636719 330.066406 C 28.34375 308.679688 23.554688 284.21875 23.554688 260.277344 C 23.554688 236.335938 27.65625 213.300781 34.953125 192.070312 C 35.183594 191.617188 35.183594 191.164062 35.410156 190.714844 C 64.597656 110.988281 141.664062 52.265625 224.910156 51.136719 L 231.59375 51.136719 L 231.59375 469.644531 L 224.917969 469.644531 C 141.210938 468.515625 64.140625 410.695312 35.636719 330.066406 Z M 35.636719 330.066406 " clip-rule="nonzero"/></clipPath><clipPath id="12c6dd304e"><path d="M 0.554688 0.125 L 208.59375 0.125 L 208.59375 418.644531 L 0.554688 418.644531 Z M 0.554688 0.125 " clip-rule="nonzero"/></clipPath><clipPath id="b374814d64"><path d="M 12.636719 279.066406 C 5.34375 257.679688 0.554688 233.21875 0.554688 209.277344 C 0.554688 185.335938 4.65625 162.300781 11.953125 141.070312 C 12.183594 140.617188 12.183594 140.164062 12.410156 139.714844 C 41.597656 59.988281 118.664062 1.265625 201.910156 0.136719 L 208.59375 0.136719 L 208.59375 418.644531 L 201.917969 418.644531 C 118.210938 417.515625 41.140625 359.695312 12.636719 279.066406 Z M 12.636719 279.066406 " clip-rule="nonzero"/></clipPath><clipPath id="2e689e1831"><rect x="0" width="209" y="0" height="419"/></clipPath><clipPath id="f055acf071"><path d="M 266.808594 52.347656 L 685.328125 52.347656 L 685.328125 260.390625 L 266.808594 260.390625 Z M 266.808594 52.347656 " clip-rule="nonzero"/></clipPath><clipPath id="97efa71758"><path d="M 545.75 248.304688 C 524.363281 255.601562 499.902344 260.390625 475.960938 260.390625 C 452.019531 260.390625 428.980469 256.285156 407.753906 248.988281 C 407.300781 248.761719 406.847656 248.761719 406.398438 248.53125 C 326.671875 219.347656 267.949219 142.277344 266.820312 59.03125 L 266.820312 52.347656 L 685.328125 52.347656 L 685.328125 59.027344 C 684.199219 142.734375 626.378906 219.804688 545.75 248.304688 Z M 545.75 248.304688 " clip-rule="nonzero"/></clipPath><clipPath id="103b0391ae"><path d="M 0.808594 0.347656 L 419.328125 0.347656 L 419.328125 208.390625 L 0.808594 208.390625 Z M 0.808594 0.347656 " clip-rule="nonzero"/></clipPath><clipPath id="a8d0f2b492"><path d="M 279.75 196.304688 C 258.363281 203.601562 233.902344 208.390625 209.960938 208.390625 C 186.019531 208.390625 162.980469 204.285156 141.753906 196.988281 C 141.300781 196.761719 140.847656 196.761719 140.398438 196.53125 C 60.671875 167.347656 1.949219 90.277344 0.820312 7.03125 L 0.820312 0.347656 L 419.328125 0.347656 L 419.328125 7.027344 C 418.199219 90.734375 360.378906 167.804688 279.75 196.304688 Z M 279.75 196.304688 " clip-rule="nonzero"/></clipPath><clipPath id="20b038d2a5"><rect x="0" width="420" y="0" height="209"/></clipPath><clipPath id="432e3a3d85"><path d="M 1209.609375 300.367188 L 1417.652344 300.367188 L 1417.652344 718.886719 L 1209.609375 718.886719 Z M 1209.609375 300.367188 " clip-rule="nonzero"/></clipPath><clipPath id="ca53f8e7a0"><path d="M 1405.566406 439.945312 C 1412.863281 461.332031 1417.652344 485.792969 1417.652344 509.734375 C 1417.652344 533.675781 1413.546875 556.710938 1406.25 577.941406 C 1406.023438 578.394531 1406.023438 578.847656 1405.792969 579.296875 C 1376.609375 659.023438 1299.539062 717.746094 1216.292969 718.875 L 1209.609375 718.875 L 1209.609375 300.367188 L 1216.289062 300.367188 C 1299.996094 301.496094 1377.066406 359.316406 1405.566406 439.945312 Z M 1405.566406 439.945312 " clip-rule="nonzero"/></clipPath><clipPath id="c46d972eb9"><path d="M 0.609375 0.367188 L 208.652344 0.367188 L 208.652344 418.886719 L 0.609375 418.886719 Z M 0.609375 0.367188 " clip-rule="nonzero"/></clipPath><clipPath id="4c55f3d92b"><path d="M 196.566406 139.945312 C 203.863281 161.332031 208.652344 185.792969 208.652344 209.734375 C 208.652344 233.675781 204.546875 256.710938 197.25 277.941406 C 197.023438 278.394531 197.023438 278.847656 196.792969 279.296875 C 167.609375 359.023438 90.539062 417.746094 7.292969 418.875 L 0.609375 418.875 L 0.609375 0.367188 L 7.289062 0.367188 C 90.996094 1.496094 168.066406 59.316406 196.566406 139.945312 Z M 196.566406 139.945312 " clip-rule="nonzero"/></clipPath><clipPath id="8dc7caa21a"><rect x="0" width="209" y="0" height="419"/></clipPath><clipPath id="a6c1f863a6"><path d="M 756.136719 51.144531 L 1174.65625 51.144531 L 1174.65625 259.1875 L 756.136719 259.1875 Z M 756.136719 51.144531 " clip-rule="nonzero"/></clipPath><clipPath id="a094ae72ca"><path d="M 895.714844 63.230469 C 917.101562 55.933594 941.5625 51.144531 965.503906 51.144531 C 989.445312 51.144531 1012.480469 55.25 1033.710938 62.546875 C 1034.164062 62.773438 1034.613281 62.773438 1035.066406 63 C 1114.792969 92.1875 1173.515625 169.257812 1174.644531 252.503906 L 1174.644531 259.1875 L 756.136719 259.1875 L 756.136719 252.507812 C 757.265625 168.800781 815.082031 91.730469 895.714844 63.230469 Z M 895.714844 63.230469 " clip-rule="nonzero"/></clipPath><clipPath id="68ec432e5b"><path d="M 0.136719 0.144531 L 418.65625 0.144531 L 418.65625 208.1875 L 0.136719 208.1875 Z M 0.136719 0.144531 " clip-rule="nonzero"/></clipPath><clipPath id="4d6cecb28f"><path d="M 139.714844 12.230469 C 161.101562 4.933594 185.5625 0.144531 209.503906 0.144531 C 233.445312 0.144531 256.480469 4.25 277.710938 11.546875 C 278.164062 11.773438 278.613281 11.773438 279.066406 12 C 358.792969 41.1875 417.515625 118.257812 418.644531 201.503906 L 418.644531 208.1875 L 0.136719 208.1875 L 0.136719 201.507812 C 1.265625 117.800781 59.082031 40.730469 139.714844 12.230469 Z M 139.714844 12.230469 " clip-rule="nonzero"/></clipPath><clipPath id="fbcd68c0ea"><rect x="0" width="419" y="0" height="209"/></clipPath><clipPath id="26ccf5827a"><path d="M 756.136719 509.621094 L 1174.65625 509.621094 L 1174.65625 717.664062 L 756.136719 717.664062 Z M 756.136719 509.621094 " clip-rule="nonzero"/></clipPath><clipPath id="d26f05c189"><path d="M 895.714844 521.707031 C 917.101562 514.410156 941.5625 509.621094 965.503906 509.621094 C 989.445312 509.621094 1012.480469 513.726562 1033.710938 521.023438 C 1034.164062 521.25 1034.613281 521.25 1035.066406 521.480469 C 1114.792969 550.664062 1173.515625 627.734375 1174.644531 710.980469 L 1174.644531 717.664062 L 756.136719 717.664062 L 756.136719 710.984375 C 757.265625 627.277344 815.082031 550.207031 895.714844 521.707031 Z M 895.714844 521.707031 " clip-rule="nonzero"/></clipPath><clipPath id="98bc1d7bd9"><path d="M 0.136719 0.621094 L 418.65625 0.621094 L 418.65625 208.664062 L 0.136719 208.664062 Z M 0.136719 0.621094 " clip-rule="nonzero"/></clipPath><clipPath id="64ad2ca578"><path d="M 139.714844 12.707031 C 161.101562 5.410156 185.5625 0.621094 209.503906 0.621094 C 233.445312 0.621094 256.480469 4.726562 277.710938 12.023438 C 278.164062 12.25 278.613281 12.25 279.066406 12.480469 C 358.792969 41.664062 417.515625 118.734375 418.644531 201.980469 L 418.644531 208.664062 L 0.136719 208.664062 L 0.136719 201.984375 C 1.265625 118.277344 59.082031 41.207031 139.714844 12.707031 Z M 139.714844 12.707031 " clip-rule="nonzero"/></clipPath><clipPath id="040c33f34d"><rect x="0" width="419" y="0" height="209"/></clipPath><clipPath id="bd49642335"><path d="M 756.117188 281.058594 L 1174.636719 281.058594 L 1174.636719 489.097656 L 756.117188 489.097656 Z M 756.117188 281.058594 " clip-rule="nonzero"/></clipPath><clipPath id="0a90ca9fc8"><path d="M 1035.058594 477.011719 C 1013.671875 484.308594 989.210938 489.097656 965.269531 489.097656 C 941.328125 489.097656 918.289062 484.992188 897.0625 477.695312 C 896.609375 477.46875 896.15625 477.46875 895.707031 477.242188 C 815.980469 448.054688 757.257812 370.984375 756.128906 287.738281 L 756.128906 281.058594 L 1174.636719 281.058594 L 1174.636719 287.734375 C 1173.507812 371.441406 1115.6875 448.511719 1035.058594 477.011719 Z M 1035.058594 477.011719 " clip-rule="nonzero"/></clipPath><clipPath id="84adad0a57"><path d="M 0.117188 0.0585938 L 418.636719 0.0585938 L 418.636719 208.097656 L 0.117188 208.097656 Z M 0.117188 0.0585938 " clip-rule="nonzero"/></clipPath><clipPath id="25ae127eff"><path d="M 279.058594 196.011719 C 257.671875 203.308594 233.210938 208.097656 209.269531 208.097656 C 185.328125 208.097656 162.289062 203.992188 141.0625 196.695312 C 140.609375 196.46875 140.15625 196.46875 139.707031 196.242188 C 59.980469 167.054688 1.257812 89.984375 0.128906 6.738281 L 0.128906 0.0585938 L 418.636719 0.0585938 L 418.636719 6.734375 C 417.507812 90.441406 359.6875 167.511719 279.058594 196.011719 Z M 279.058594 196.011719 " clip-rule="nonzero"/></clipPath><clipPath id="e4afb424b9"><rect x="0" width="419" y="0" height="209"/></clipPath></defs><g clip-path="url(#f1b22b523a)"><g clip-path="url(#24d4496684)"><g transform="matrix(1, 0, 0, 1, 22, 550)"><g clip-path="url(#2925f953f4)"><g clip-path="url(#b755a18395)"><g clip-path="url(#fc2162c39d)"><path fill="#222222" d="M 0.339844 0.8125 L 418.859375 0.8125 L 418.859375 208.855469 L 0.339844 208.855469 Z M 0.339844 0.8125 " fill-opacity="1" fill-rule="nonzero"/></g></g></g></g></g></g><g clip-path="url(#2a41d2c63f)"><g clip-path="url(#142f46d52c)"><g transform="matrix(1, 0, 0, 1, 476, 340)"><g clip-path="url(#325277e6c7)"><g clip-path="url(#76ec4f9052)"><g clip-path="url(#8348c8a87d)"><path fill="#222222" d="M 208.113281 0.347656 L 208.113281 418.867188 L 0.0742188 418.867188 L 0.0742188 0.347656 Z M 208.113281 0.347656 " fill-opacity="1" fill-rule="nonzero"/></g></g></g></g></g></g><g clip-path="url(#fee7ac74f5)"><g clip-path="url(#24315b5713)"><g transform="matrix(1, 0, 0, 1, 23, 51)"><g clip-path="url(#2e689e1831)"><g clip-path="url(#12c6dd304e)"><g clip-path="url(#b374814d64)"><path fill="#222222" d="M 0.554688 418.644531 L 0.554688 0.125 L 208.59375 0.125 L 208.59375 418.644531 Z M 0.554688 418.644531 " fill-opacity="1" fill-rule="nonzero"/></g></g></g></g></g></g><g clip-path="url(#f055acf071)"><g clip-path="url(#97efa71758)"><g transform="matrix(1, 0, 0, 1, 266, 52)"><g clip-path="url(#20b038d2a5)"><g clip-path="url(#103b0391ae)"><g clip-path="url(#a8d0f2b492)"><path fill="#222222" d="M 419.328125 208.390625 L 0.808594 208.390625 L 0.808594 0.347656 L 419.328125 0.347656 Z M 419.328125 208.390625 " fill-opacity="1" fill-rule="nonzero"/></g></g></g></g></g></g><g clip-path="url(#432e3a3d85)"><g clip-path="url(#ca53f8e7a0)"><g transform="matrix(1, 0, 0, 1, 1209, 300)"><g clip-path="url(#8dc7caa21a)"><g clip-path="url(#c46d972eb9)"><g clip-path="url(#4c55f3d92b)"><path fill="#222222" d="M 208.652344 0.367188 L 208.652344 418.886719 L 0.609375 418.886719 L 0.609375 0.367188 Z M 208.652344 0.367188 " fill-opacity="1" fill-rule="nonzero"/></g></g></g></g></g></g><g clip-path="url(#a6c1f863a6)"><g clip-path="url(#a094ae72ca)"><g transform="matrix(1, 0, 0, 1, 756, 51)"><g clip-path="url(#fbcd68c0ea)"><g clip-path="url(#68ec432e5b)"><g clip-path="url(#4d6cecb28f)"><path fill="#222222" d="M 0.136719 0.144531 L 418.65625 0.144531 L 418.65625 208.1875 L 0.136719 208.1875 Z M 0.136719 0.144531 " fill-opacity="1" fill-rule="nonzero"/></g></g></g></g></g></g><g clip-path="url(#26ccf5827a)"><g clip-path="url(#d26f05c189)"><g transform="matrix(1, 0, 0, 1, 756, 509)"><g clip-path="url(#040c33f34d)"><g clip-path="url(#98bc1d7bd9)"><g clip-path="url(#64ad2ca578)"><path fill="#222222" d="M 0.136719 0.621094 L 418.65625 0.621094 L 418.65625 208.664062 L 0.136719 208.664062 Z M 0.136719 0.621094 " fill-opacity="1" fill-rule="nonzero"/></g></g></g></g></g></g><g clip-path="url(#bd49642335)"><g clip-path="url(#0a90ca9fc8)"><g transform="matrix(1, 0, 0, 1, 756, 281)"><g clip-path="url(#e4afb424b9)"><g clip-path="url(#84adad0a57)"><g clip-path="url(#25ae127eff)"><path fill="#222222" d="M 418.636719 208.097656 L 0.117188 208.097656 L 0.117188 0.0585938 L 418.636719 0.0585938 Z M 418.636719 208.097656 " fill-opacity="1" fill-rule="nonzero"/></g></g></g></g></g></g></svg>